<svg xmlns="http://www.w3.org/2000/svg" xmlns:xlink="http://www.w3.org/1999/xlink" viewBox="0 0 180.05 344.49"><defs><style>.cls-1{fill:none;}.cls-2{fill:#495562;}.cls-3{fill:#9ddcf9;}.cls-4{fill:#bce6fa;}.cls-5{fill:#3b9ed8;}.cls-6{fill:#fff;}.cls-7{fill:#78d2f7;}.cls-8{fill:#c1babb;}.cls-9{fill:#242d37;}.cls-10{fill:#7d7780;}.cls-11{fill:#ef505e;}.cls-12{clip-path:url(#clip-path);}.cls-13{fill:#e0dfe1;}.cls-14{fill:#fdcf9c;}.cls-15{fill:#fbbb87;}.cls-16{fill:#f9ab7b;}.cls-17{fill:#3b3c3e;}.cls-18{fill:#f05646;}.cls-19{fill:#cd2227;}.cls-20{fill:#3f8fcd;}.cls-21{fill:#80c0e9;}.cls-22{fill:#f6a4af;}</style><clipPath id="clip-path"><ellipse class="cls-1" cx="79.79" cy="238.7" rx="36.18" ry="36.13"/></clipPath></defs><g id="Layer_2" data-name="Layer 2"><g id="OBJECTS"><rect class="cls-2" width="180.05" height="344.49" rx="18"/><rect class="cls-3" x="7.2" y="9" width="165.64" height="326.49" rx="21.15"/><path class="cls-4" d="M172.85,184c-6.09-6.78-12-13.73-17.48-20.88-14-18.21-30.72-34.52-42.59-54.33C100.15,87.66,92,62.85,82.56,40.24,78.1,29.57,72.57,19.5,68.08,9H33.45C39,22.71,43.49,37,50,50.37a1041.91,1041.91,0,0,0,67,117.1c17.65,26.76,35.21,53.47,55.79,77.22Z"/><path class="cls-4" d="M83.41,238.27c11.07,25.41,22,51.18,36.55,74.85,4.68,7.63,9.54,15.11,14.69,22.37h16.59a21.57,21.57,0,0,0,17.62-9.13c-3.37-4.67-6.56-9.35-9.65-13.67C135.12,279,114.94,243.31,95.27,206.82A952.68,952.68,0,0,1,26.82,47c-.94-2.91-7-19.26-10.87-33.69A21.56,21.56,0,0,0,7.2,30.61V55C23.67,118.5,57.57,179,83.41,238.27Z"/><path class="cls-4" d="M99.75,328.62a562.76,562.76,0,0,1-36.51-53.57c-24.79-41.11-41.36-87.76-56-133.39V313.88a21.61,21.61,0,0,0,21.61,21.61h75.85C103,333.1,101.42,330.79,99.75,328.62Z"/><rect class="cls-5" x="7.2" y="30.15" width="165.64" height="24.84"/><circle class="cls-6" cx="23.8" cy="42.2" r="9"/><circle class="cls-6" cx="166.92" cy="34.53" r="1.83"/><circle class="cls-6" cx="166.92" cy="41.83" r="1.83"/><circle class="cls-6" cx="166.92" cy="49.13" r="1.83"/><path class="cls-7" d="M96.38,42H41.55A2.59,2.59,0,0,1,39,39.45h0a2.59,2.59,0,0,1,2.59-2.58H96.38A2.58,2.58,0,0,1,99,39.45h0A2.58,2.58,0,0,1,96.38,42Z"/><path class="cls-7" d="M118.21,50H41.55A2.59,2.59,0,0,1,39,47.45h0a2.59,2.59,0,0,1,2.59-2.58h76.66a2.59,2.59,0,0,1,2.59,2.58h0A2.59,2.59,0,0,1,118.21,50Z"/><rect class="cls-6" x="20.73" y="305.7" width="122.32" height="19.33" rx="9.54"/><circle class="cls-2" cx="156.88" cy="315.62" r="9.17" transform="translate(-177.23 203.37) rotate(-45)"/><path class="cls-6" d="M157.32,318.47a2.94,2.94,0,0,0,2.29-2.94V312a2.94,2.94,0,0,0-2.29-2.94,2.83,2.83,0,0,0-3.34,2.77v3.87A2.83,2.83,0,0,0,157.32,318.47Z"/><path class="cls-6" d="M161.8,316.07h-1.25a3.75,3.75,0,0,1-7.5,0H151.8A5,5,0,0,0,156,321s.05,0,.05.06v2h1.37v-2a.06.06,0,0,1,.05-.06A5,5,0,0,0,161.8,316.07Z"/><path class="cls-2" d="M135,308.83h-8.37a2.56,2.56,0,0,0-2.56,2.56v8.38a2.56,2.56,0,0,0,2.56,2.56H135a2.57,2.57,0,0,0,2.57-2.56v-8.38A2.57,2.57,0,0,0,135,308.83Zm1.32,9.69a2.57,2.57,0,0,1-2.57,2.56h-5.87a2.56,2.56,0,0,1-2.56-2.56v-5.88a2.56,2.56,0,0,1,2.56-2.56h5.87a2.57,2.57,0,0,1,2.57,2.56Z"/><circle class="cls-2" cx="130.92" cy="315.45" r="2.81"/><rect class="cls-8" x="28.63" y="312.39" width="76.17" height="7.29" rx="3.65"/><path class="cls-9" d="M151.7,9H28.35A21.15,21.15,0,0,0,7.2,30.15H172.85A21.15,21.15,0,0,0,151.7,9Z"/><rect class="cls-2" x="51.01" y="0.4" width="75.62" height="16.8" rx="7"/><rect class="cls-9" x="67.82" y="6.04" width="42.01" height="5.52" rx="1.99"/><path class="cls-9" d="M121.61,8.51a3.7,3.7,0,1,1-3.7-3.7A3.7,3.7,0,0,1,121.61,8.51Z"/><path class="cls-9" d="M63.19,8.51a3.7,3.7,0,1,1-3.7-3.7A3.7,3.7,0,0,1,63.19,8.51Z"/><rect class="cls-6" x="144.67" y="12.21" width="12.75" height="3.99" rx="2"/><rect class="cls-6" x="130.55" y="13.27" width="1.88" height="2.93"/><rect class="cls-6" x="134.17" y="11.81" width="1.88" height="4.4"/><rect class="cls-6" x="137.98" y="10.09" width="1.88" height="6.11"/><circle class="cls-6" cx="25.46" cy="13.45" r="1.36"/><path class="cls-6" d="M33.66,13.45a1.37,1.37,0,1,1-1.36-1.36A1.36,1.36,0,0,1,33.66,13.45Z"/><path class="cls-6" d="M40.49,13.45a1.36,1.36,0,1,1-1.36-1.36A1.36,1.36,0,0,1,40.49,13.45Z"/><path class="cls-10" d="M104.86,26.08H75a2.58,2.58,0,0,1-2.58-2.58h0A2.58,2.58,0,0,1,75,20.92h29.84a2.58,2.58,0,0,1,2.58,2.58h0A2.58,2.58,0,0,1,104.86,26.08Z"/><ellipse class="cls-11" cx="79.79" cy="238.7" rx="41.86" ry="41.8"/><ellipse class="cls-6" cx="79.79" cy="238.7" rx="36.18" ry="36.13"/><g class="cls-12"><polygon class="cls-13" points="79.78 206.86 38.89 244.15 56.68 286.14 79.78 287.97 79.78 206.86"/><rect class="cls-14" x="75" y="255.45" width="9.57" height="10.72"/><path class="cls-15" d="M75,256.71a16,16,0,0,0,9.57,2v-3.23H75Z"/><path class="cls-16" d="M65.87,238.83c0,2.94-2.09,5.33-4.67,5.33s-4.67-2.39-4.67-5.33,2.09-5.33,4.67-5.33S65.87,235.88,65.87,238.83Z"/><ellipse class="cls-16" cx="98.37" cy="238.83" rx="4.67" ry="5.33"/><path class="cls-14" d="M98.35,228.65c0-7.85-5.74-13.59-18.56-13.59s-18.57,5.74-18.57,13.59-1.34,28.52,18.57,28.52S98.35,236.5,98.35,228.65Z"/><path class="cls-17" d="M72.75,237.55a2,2,0,1,1-2-2.2A2.11,2.11,0,0,1,72.75,237.55Z"/><path class="cls-6" d="M70.47,236.58a.61.61,0,1,1-.61-.6A.6.6,0,0,1,70.47,236.58Z"/><path class="cls-17" d="M67.53,232.1c1,.47,2.47-1.62,6,.2.63.33,1-2.84-2.73-2.84C67.53,229.46,67,231.81,67.53,232.1Z"/><path class="cls-17" d="M91.09,237.55a2,2,0,1,1-2-2.2A2.11,2.11,0,0,1,91.09,237.55Z"/><path class="cls-6" d="M88.8,236.58a.6.6,0,1,1-.6-.6A.6.6,0,0,1,88.8,236.58Z"/><path class="cls-17" d="M92.05,232.1c-1,.47-2.48-1.62-6,.2-.63.33-1-2.84,2.73-2.84C92.05,229.46,92.62,231.81,92.05,232.1Z"/><path class="cls-16" d="M79.79,243.42c-2,0-3.19-1.49-3.19-.77s.58,2.08,3.19,2.08S83,243.37,83,242.65,81.77,243.42,79.79,243.42Z"/><path class="cls-18" d="M75.75,248.14c.35-.72,8-1,8.6-.19s-.09,4.8-4.63,4.8C76.31,252.75,75.29,249.12,75.75,248.14Z"/><path class="cls-19" d="M84.35,248c-.65-.78-8.25-.53-8.6.19a3,3,0,0,0,.27,2.15,8.09,8.09,0,0,1,4-1.24,10.53,10.53,0,0,1,4.36.74A2.2,2.2,0,0,0,84.35,248Z"/><path class="cls-20" d="M79.79,259.76v16.92l-23.26-4.86C56.53,266.94,68.78,259.76,79.79,259.76Z"/><path class="cls-20" d="M79.79,259.76v16.69L103,271.82C103,266.94,90.79,259.76,79.79,259.76Z"/><path class="cls-21" d="M79.79,259.76a30.42,30.42,0,0,0-7.07.88A9.48,9.48,0,0,0,79.79,264a10.47,10.47,0,0,0,7.31-3.27A30.92,30.92,0,0,0,79.79,259.76Z"/><path class="cls-14" d="M75,260.18s1.4,1.73,4.78,1.73,4.79-1.73,4.79-1.73S79.61,258.37,75,260.18Z"/><path class="cls-17" d="M102,221.63a28,28,0,0,0-1.64-2.72,10.33,10.33,0,0,0-3.06-4.18c1.07-.33,1.9-.89,1-1.56s-2.17-.29-3.15.27c.14-1.19.12-2.94-.78-3.56s-1.32.35-1.38,1.59c-2.77-2.2-8.45-5.33-17.17-3.93a30.06,30.06,0,0,0-7.71,1c-2,.59-6.32,1.82-7.49,3.82-.56,1,.49,1.36,1.8,1.48l-.06.08a6.37,6.37,0,0,0-3.92,2.59c-.56.9-1.27,2.08-.21,2.55a3.77,3.77,0,0,0,1.27.27,28,28,0,0,0-.68,8.9c.43,8.38,1.58,13.29,2.94,12.69s.65-6.14.79-7.42a11.73,11.73,0,0,1,.64-2.76c.22.72.79.9,1.44.3,1.12-1,1.5-2.65,2.49-3.79a7,7,0,0,1,1.62-1.39,10.41,10.41,0,0,1,1.34-.17.77.77,0,0,0,.28,1.15c1,.62,2.59.09,3.55-.25.66-.23,1.46-.48,2.22-.79h.15a1.42,1.42,0,0,0-.09.86c.2.8,1.32.59,2,.56,3.79-.16,7.42-2.18,10.39-4.57l.2-.1a7,7,0,0,0,.55,2.08c.29.87.63,2.58,1.74,2.83a.79.79,0,0,0,.93-.48c.36,1.33,1.58,2,2.5,3.11.54.67.44,2.57,1.24,2.86a.85.85,0,0,0,.94-.19c.5,3.51.13,7.67,1.08,7.67s3.84-7.61,3.72-14.9c.51.36.93.37,1-.55A6,6,0,0,0,102,221.63Z"/></g><polygon class="cls-11" points="64.09 277.17 89.53 297.38 89.53 277.17 64.09 277.17"/><rect class="cls-11" x="33.68" y="79.34" width="105.35" height="68.19" rx="15.75"/><rect class="cls-22" x="47.26" y="91.23" width="81.16" height="4.54" rx="1.89"/><rect class="cls-22" x="47.26" y="103.28" width="81.16" height="4.54" rx="1.89"/><rect class="cls-22" x="47.26" y="115.33" width="81.16" height="4.54" rx="1.89"/><rect class="cls-22" x="47.26" y="127.38" width="52.03" height="4.54" rx="1.89"/></g></g></svg>