<svg xmlns="http://www.w3.org/2000/svg" xmlns:xlink="http://www.w3.org/1999/xlink" viewBox="0 0 180.05 344.49"><defs><style>.cls-1{fill:#fff;}.cls-2{fill:#495562;}.cls-3{fill:#9ddcf9;}.cls-4{fill:#bce6fa;}.cls-5{fill:#3b9ed8;}.cls-6{fill:#78d2f7;}.cls-7{fill:#c1babb;}.cls-8{fill:#242d37;}.cls-9{fill:#7d7780;}.cls-10{fill:#ff4500;}.cls-11{clip-path:url(#clip-path);}.cls-12{fill:#f6a4af;}</style><clipPath id="clip-path"><ellipse class="cls-1" cx="87.65" cy="216.96" rx="51.69" ry="50.32"/></clipPath></defs><g id="Layer_2" data-name="Layer 2"><g id="OBJECTS"><rect class="cls-2" width="180.05" height="344.49" rx="18"/><rect class="cls-3" x="7.2" y="9" width="165.64" height="326.49" rx="21.15"/><path class="cls-4" d="M172.85,184c-6.09-6.78-12-13.73-17.48-20.88-14-18.21-30.72-34.52-42.59-54.33C100.15,87.66,92,62.85,82.56,40.24,78.1,29.57,72.57,19.5,68.08,9H33.45C39,22.71,43.49,37,50,50.37a1041.91,1041.91,0,0,0,67,117.1c17.65,26.76,35.21,53.47,55.79,77.22Z"/><path class="cls-4" d="M83.41,238.27c11.07,25.41,22,51.18,36.55,74.85,4.68,7.63,9.54,15.11,14.69,22.37h16.59a21.57,21.57,0,0,0,17.62-9.13c-3.37-4.67-6.56-9.35-9.65-13.67C135.12,279,114.94,243.31,95.27,206.82A952.68,952.68,0,0,1,26.82,47c-.94-2.91-7-19.26-10.87-33.69A21.56,21.56,0,0,0,7.2,30.61V55C23.67,118.5,57.57,179,83.41,238.27Z"/><path class="cls-4" d="M99.75,328.62a562.76,562.76,0,0,1-36.51-53.57c-24.79-41.11-41.36-87.76-56-133.39V313.88a21.61,21.61,0,0,0,21.61,21.61h75.85C103,333.1,101.42,330.79,99.75,328.62Z"/><rect class="cls-5" x="7.2" y="30.15" width="165.64" height="24.84"/><circle class="cls-1" cx="23.8" cy="42.2" r="9"/><circle class="cls-1" cx="166.92" cy="34.53" r="1.83"/><circle class="cls-1" cx="166.92" cy="41.83" r="1.83"/><circle class="cls-1" cx="166.92" cy="49.13" r="1.83"/><path class="cls-6" d="M96.38,42H41.55A2.59,2.59,0,0,1,39,39.45h0a2.59,2.59,0,0,1,2.59-2.58H96.38A2.58,2.58,0,0,1,99,39.45h0A2.58,2.58,0,0,1,96.38,42Z"/><path class="cls-6" d="M118.21,50H41.55A2.59,2.59,0,0,1,39,47.45h0a2.59,2.59,0,0,1,2.59-2.58h76.66a2.59,2.59,0,0,1,2.59,2.58h0A2.59,2.59,0,0,1,118.21,50Z"/><rect class="cls-1" x="20.73" y="305.7" width="122.32" height="19.33" rx="9.54"/><circle class="cls-2" cx="156.88" cy="315.62" r="9.17" transform="translate(-177.23 203.37) rotate(-45)"/><path class="cls-1" d="M157.32,318.47a2.94,2.94,0,0,0,2.29-2.94V312a2.94,2.94,0,0,0-2.29-2.94,2.83,2.83,0,0,0-3.34,2.77v3.87A2.83,2.83,0,0,0,157.32,318.47Z"/><path class="cls-1" d="M161.8,316.07h-1.25a3.75,3.75,0,0,1-7.5,0H151.8A5,5,0,0,0,156,321s.05,0,.05.06v2h1.37v-2a.06.06,0,0,1,.05-.06A5,5,0,0,0,161.8,316.07Z"/><path class="cls-2" d="M135,308.83h-8.37a2.56,2.56,0,0,0-2.56,2.56v8.38a2.56,2.56,0,0,0,2.56,2.56H135a2.57,2.57,0,0,0,2.57-2.56v-8.38A2.57,2.57,0,0,0,135,308.83Zm1.32,9.69a2.57,2.57,0,0,1-2.57,2.56h-5.87a2.56,2.56,0,0,1-2.56-2.56v-5.88a2.56,2.56,0,0,1,2.56-2.56h5.87a2.57,2.57,0,0,1,2.57,2.56Z"/><circle class="cls-2" cx="130.92" cy="315.45" r="2.81"/><rect class="cls-7" x="28.63" y="312.39" width="76.17" height="7.29" rx="3.65"/><path class="cls-8" d="M151.7,9H28.35A21.15,21.15,0,0,0,7.2,30.15H172.85A21.15,21.15,0,0,0,151.7,9Z"/><rect class="cls-2" x="51.01" y="0.4" width="75.62" height="16.8" rx="7"/><rect class="cls-8" x="67.82" y="6.04" width="42.01" height="5.52" rx="1.99"/><path class="cls-8" d="M121.61,8.51a3.7,3.7,0,1,1-3.7-3.7A3.7,3.7,0,0,1,121.61,8.51Z"/><path class="cls-8" d="M63.19,8.51a3.7,3.7,0,1,1-3.7-3.7A3.7,3.7,0,0,1,63.19,8.51Z"/><rect class="cls-1" x="144.67" y="12.21" width="12.75" height="3.99" rx="2"/><rect class="cls-1" x="130.55" y="13.27" width="1.88" height="2.93"/><rect class="cls-1" x="134.17" y="11.81" width="1.88" height="4.4"/><rect class="cls-1" x="137.98" y="10.09" width="1.88" height="6.11"/><circle class="cls-1" cx="25.46" cy="13.45" r="1.36"/><path class="cls-1" d="M33.66,13.45a1.37,1.37,0,1,1-1.36-1.36A1.36,1.36,0,0,1,33.66,13.45Z"/><path class="cls-1" d="M40.49,13.45a1.36,1.36,0,1,1-1.36-1.36A1.36,1.36,0,0,1,40.49,13.45Z"/><path class="cls-9" d="M104.86,26.08H75a2.58,2.58,0,0,1-2.58-2.58h0A2.58,2.58,0,0,1,75,20.92h29.84a2.58,2.58,0,0,1,2.58,2.58h0A2.58,2.58,0,0,1,104.86,26.08Z"/><ellipse class="cls-10" cx="87.65" cy="216.96" rx="59.79" ry="58.21"/><ellipse class="cls-10" cx="87.65" cy="216.96" rx="51.69" ry="50.32"/><ellipse class="cls-1" cx="87.65" cy="216.96" rx="51.69" ry="50.32"/><g class="cls-11"><polygon class="cls-1" points="87.65 172.62 29.23 224.55 54.65 283.03 87.65 285.58 87.65 172.62"/><rect class="cls-1" x="80.82" y="240.29" width="13.67" height="14.93"/><path class="cls-1" d="M80.82,242.05a23.38,23.38,0,0,0,13.67,2.74v-4.5H80.82Z"/><path class="cls-1" d="M67.77,217.14c0,4.1-3,7.42-6.67,7.42s-6.67-3.32-6.67-7.42,3-7.42,6.67-7.42S67.77,213,67.77,217.14Z"/><ellipse class="cls-1" cx="114.21" cy="217.14" rx="6.67" ry="7.42"/><path class="cls-1" d="M114.18,203C114.18,192,106,184,87.65,184S61.13,192,61.13,203s-1.92,39.72,26.52,39.72S114.18,213.9,114.18,203Z"/><path class="cls-1" d="M77.6,215.36a2.88,2.88,0,1,1-2.87-3.06A3,3,0,0,1,77.6,215.36Z"/><path class="cls-1" d="M74.34,214a.86.86,0,1,1-.86-.84A.86.86,0,0,1,74.34,214Z"/><path class="cls-1" d="M70.14,207.77c1.36.66,3.54-2.25,8.53.28.91.46,1.45-4-3.9-4C70.14,204.1,69.32,207.37,70.14,207.77Z"/><path class="cls-1" d="M103.8,215.36a2.88,2.88,0,1,1-2.87-3.06A3,3,0,0,1,103.8,215.36Z"/><path class="cls-1" d="M100.53,214a.86.86,0,1,1-.85-.84A.85.85,0,0,1,100.53,214Z"/><path class="cls-1" d="M105.17,207.77c-1.36.66-3.54-2.25-8.53.28-.91.46-1.46-4,3.89-4C105.17,204.1,106,207.37,105.17,207.77Z"/><path class="cls-1" d="M87.65,223.53c-2.83,0-4.54-2.06-4.54-1.06s.82,2.9,4.54,2.9,4.55-1.9,4.55-2.9S90.49,223.53,87.65,223.53Z"/><path class="cls-1" d="M81.89,230.11c.49-1,11.36-1.35,12.28-.27s-.13,6.7-6.62,6.7C82.68,236.54,81.23,231.47,81.89,230.11Z"/><path class="cls-1" d="M94.17,229.84c-.92-1.08-11.79-.73-12.28.27a4.07,4.07,0,0,0,.38,3,11.72,11.72,0,0,1,5.7-1.73,15.49,15.49,0,0,1,6.24,1A3,3,0,0,0,94.17,229.84Z"/><path class="cls-1" d="M87.65,246.29v23.57l-33.22-6.77C54.43,256.29,71.93,246.29,87.65,246.29Z"/><path class="cls-1" d="M87.65,246.29v23.25l33.23-6.45C120.88,256.29,103.38,246.29,87.65,246.29Z"/><path class="cls-1" d="M87.65,246.29a45.06,45.06,0,0,0-10.09,1.23,13.65,13.65,0,0,0,10.09,4.63,15.16,15.16,0,0,0,10.45-4.54A44.79,44.79,0,0,0,87.65,246.29Z"/><path class="cls-1" d="M80.82,246.87s2,2.42,6.83,2.42,6.84-2.42,6.84-2.42S87.4,244.35,80.82,246.87Z"/><path class="cls-1" d="M119.39,193.19A41.69,41.69,0,0,0,117,189.4a14.29,14.29,0,0,0-4.37-5.82c1.53-.46,2.72-1.24,1.5-2.17s-3.1-.41-4.49.37c.19-1.66.17-4.09-1.13-5-1.46-1-1.87.5-2,2.23-4-3.07-12.08-7.43-24.53-5.49A44.34,44.34,0,0,0,71,175c-2.91.82-9,2.54-10.69,5.32-.81,1.35.7,1.89,2.57,2.07l-.1.1a9.13,9.13,0,0,0-5.59,3.61c-.8,1.25-1.81,2.9-.3,3.55a5.07,5.07,0,0,0,1.81.37,38.23,38.23,0,0,0-1,12.4c.62,11.67,2.26,18.52,4.2,17.67s.93-8.55,1.14-10.33a15.38,15.38,0,0,1,.91-3.85c.31,1,1.12,1.25,2,.43,1.61-1.45,2.15-3.7,3.56-5.29a10.25,10.25,0,0,1,2.31-1.92,13.94,13.94,0,0,1,1.92-.25,1.05,1.05,0,0,0,.39,1.6c1.39.87,3.71.14,5.08-.34.94-.32,2.09-.67,3.17-1.1h.22a1.88,1.88,0,0,0-.13,1.21c.29,1.11,1.89.82,2.9.77,5.42-.21,10.6-3,14.84-6.36l.28-.14a9.78,9.78,0,0,0,.79,2.9c.41,1.21.9,3.6,2.49,3.93a1.12,1.12,0,0,0,1.33-.65c.52,1.84,2.25,2.75,3.56,4.32.79.94.63,3.58,1.78,4a1.29,1.29,0,0,0,1.34-.26c.72,4.88.19,10.67,1.54,10.67s5.49-10.6,5.32-20.76c.72.51,1.33.53,1.44-.76A8.07,8.07,0,0,0,119.39,193.19Z"/></g><polygon class="cls-10" points="71.51 268.58 110.13 308.24 110.13 268.58 71.51 268.58"/><rect class="cls-10" x="41.1" y="70.75" width="105.35" height="68.19" rx="15.75"/><rect class="cls-12" x="54.68" y="82.64" width="81.16" height="4.54" rx="1.89"/><rect class="cls-12" x="54.68" y="94.69" width="81.16" height="4.54" rx="1.89"/><rect class="cls-12" x="54.68" y="106.74" width="81.16" height="4.54" rx="1.89"/><rect class="cls-12" x="54.68" y="118.79" width="52.03" height="4.54" rx="1.89"/><image width="1108" height="398" transform="translate(49.45 199.38) scale(0.07)" xlink:href="D:%5CDownloads%5Cfavicon.png.png"/></g></g></svg>